<?xml version="1.0" encoding="UTF-8"?>
<svg id="Layer_1" data-name="Layer 1" xmlns="http://www.w3.org/2000/svg" viewBox="0 0 916.78 916.78">
  <defs>
    <style>
      .cls-1 {
        fill: #fff;
        stroke: #444445;
        stroke-miterlimit: 10;
        stroke-width: .25px;
      }

      .cls-2 {
        fill: #444445;
      }

      .cls-3 {
        fill: #1da54c;
      }
    </style>
  </defs>
  <rect class="cls-1" x="-16.96" y="-26.32" width="950.7" height="969.41"/>
  <g>
    <g>
      <polygon class="cls-3" points="247.12 404.03 338.62 404.03 359.14 377.66 267.64 377.66 247.12 404.03"/>
      <polygon class="cls-3" points="182.08 487.51 273.58 487.51 294.11 461.15 202.61 461.15 182.08 487.51"/>
      <polygon class="cls-3" points="208.41 529.25 241.15 529.25 261.67 502.89 228.93 502.89 208.41 529.25"/>
      <polygon class="cls-3" points="140.1 445.77 306.14 445.77 326.66 419.4 160.63 419.4 140.1 445.77"/>
    </g>
    <g>
      <path class="cls-2" d="M391.29,482.47c0,4.91-1.02,8.6-3.04,11.07-2.02,2.47-5.04,3.76-9.11,3.85-.15,0-.3,0-.45,0-3.99,0-6.96-1.24-8.94-3.72-1.98-2.48-2.99-6.21-2.98-11.2v-36.71l-15.13.33v36.53c0,9.08,2.15,15.91,6.48,20.47,4.33,4.56,10.81,6.83,19.42,6.83.35,0,.7,0,1.06-.01,9.24-.2,16.2-2.72,20.84-7.59,4.64-4.86,6.95-12.05,6.95-21.54v-35.87l-15.09.33v37.23Z"/>
      <polygon class="cls-2" points="425.91 507.94 440.68 507.62 440.68 507.5 440.68 440.71 425.91 441.03 425.91 507.94"/>
      <path class="cls-2" d="M477.64,447.98h-14.72v14.03l-7.63.17v10.49l7.63-.17v20.5c0,5,1.23,8.77,3.71,11.29,2.48,2.52,6.2,3.77,11.12,3.77.21,0,.42,0,.64,0,4.33-.09,7.58-.71,9.75-1.85l.06-.03v-10.57l-.18.1c-1.61.88-3.17,1.33-4.68,1.36-.07,0-.14,0-.21,0-1.85,0-3.21-.56-4.13-1.68-.91-1.12-1.38-2.82-1.38-5.11v-18.09l10.57-.23v-10.49l-10.57.23v-13.71Z"/>
      <path class="cls-2" d="M516.61,441.59c-1.51-1.26-3.46-1.88-5.83-1.88-.1,0-.2,0-.3,0-2.47.05-4.51.76-6.1,2.14-1.59,1.37-2.39,3.13-2.39,5.24,0,2.05.8,3.79,2.39,5.16,1.53,1.33,3.48,1.99,5.83,1.99.09,0,.18,0,.28,0,2.5-.05,4.55-.78,6.12-2.18,1.57-1.4,2.36-3.19,2.36-5.33,0-2.11-.79-3.84-2.36-5.14Z"/>
      <polygon class="cls-2" points="503.02 506.56 517.78 506.24 517.78 506.13 517.78 460.97 503.02 461.29 503.02 506.56"/>
      <path class="cls-2" d="M597.55,458.32c-.18,0-.37,0-.56,0-6.91.15-12.19,3.03-15.79,8.61-1.2-2.62-2.87-4.6-5.03-5.93-2.21-1.37-4.93-2.05-8.13-2.05-.17,0-.34,0-.51,0-3.24.07-6.22.9-8.95,2.47-2.7,1.56-4.81,3.56-6.32,5.99v-7.03l-14.76.32v45.27l14.76-.32v-25.14c0-3.21.74-5.74,2.2-7.63,1.47-1.88,3.41-2.84,5.86-2.9.08,0,.16,0,.25,0,2.36,0,4.1.77,5.27,2.3,1.17,1.53,1.76,3.85,1.76,6.96v26.07l14.76-.32v-25.31c0-2.91.74-5.35,2.23-7.32,1.48-1.97,3.39-2.97,5.74-3.02.08,0,.16,0,.24,0,2.41,0,4.18.79,5.37,2.36,1.19,1.58,1.8,3.96,1.8,7.16v25.8l14.72-.32v-28.13c0-5.94-1.24-10.42-3.73-13.42-2.49-3-6.24-4.49-11.19-4.49Z"/>
      <path class="cls-2" d="M651.49,457.32c-.3,0-.6,0-.91,0-2.89.06-6.09.51-9.61,1.35-3.51.84-6.29,1.78-8.32,2.83l-.07.03v10.76l.19-.12c5.04-3.29,10.35-5,15.93-5.12.13,0,.26,0,.39,0,2.64,0,4.6.6,5.9,1.77,1.28,1.16,1.93,2.88,1.95,5.21l-12.67,1.89c-5.42.79-9.5,2.49-12.23,5.09-2.73,2.6-4.09,6.12-4.09,10.51,0,4.16,1.32,7.48,3.97,9.92,2.54,2.35,5.99,3.52,10.33,3.52.18,0,.36,0,.54,0,6.2-.13,10.91-2.76,14.08-7.86v6.46l13.98-.3v-27.03c0-6.28-1.61-11.01-4.84-14.18-3.23-3.16-8.08-4.73-14.5-4.73ZM656.94,485.15c0,2.73-.85,4.99-2.54,6.81-1.7,1.82-3.88,2.75-6.58,2.81-.08,0-.16,0-.24,0-1.83,0-3.27-.47-4.35-1.39-1.12-.97-1.68-2.21-1.68-3.76,0-1.72.58-3.07,1.73-4.09,1.15-1.02,2.9-1.71,5.25-2.05l8.41-1.22v2.9Z"/>
      <path class="cls-2" d="M694.06,488.66c0,5,1.23,8.77,3.71,11.29,2.48,2.52,6.2,3.77,11.12,3.77.21,0,.43,0,.64,0,4.33-.09,7.58-.71,9.75-1.85l.06-.03v-10.57l-.18.1c-1.61.88-3.17,1.33-4.68,1.36-.07,0-.13,0-.2,0-1.86,0-3.22-.56-4.13-1.68-.91-1.12-1.38-2.82-1.38-5.11v-18.09l10.57-.23v-10.49l-10.57.23v-13.71s-14.72,0-14.72,0v14.03l-7.63.17v10.49l7.63-.17v20.5Z"/>
      <path class="cls-2" d="M737.69,497.17c4.06,3.81,9.69,5.71,16.87,5.71.3,0,.6,0,.91,0,6.97-.15,12.64-1.39,17.01-3.72l.06-.03v-10.32l-.18.11c-3.9,2.42-8.43,3.68-13.59,3.8-.21,0-.42,0-.63,0-3.84,0-6.76-.79-8.78-2.36-1.99-1.54-3.11-3.85-3.37-6.94l30.69-.66v-5.97c0-6.71-1.89-11.99-5.66-15.84-3.64-3.7-8.73-5.55-15.25-5.55-.25,0-.51,0-.77,0-6.65.14-12.26,2.46-16.81,6.95-4.56,4.49-6.84,10.5-6.84,18,0,7.23,2.11,12.85,6.34,16.81ZM745.91,474.64c.38-2.68,1.4-4.93,3.05-6.77,1.68-1.86,3.66-2.81,5.96-2.86.1,0,.2,0,.29,0,2.61,0,4.53.78,5.82,2.33,1.27,1.53,1.93,3.84,1.94,6.93l-17.06.37Z"/>
      <g>
        <path class="cls-2" d="M710.96,533.07c-.11,0-.22,0-.33,0-2.03.04-3.81.51-5.36,1.39-1.53.88-2.82,2.17-3.87,3.87v-4.47s-4.4.1-4.4.1v37.29l4.4-.1v-15.38h0c1.83,2.73,4.42,4.11,7.74,4.1.09,0,.18,0,.27,0,3.77-.08,6.76-1.43,8.93-4.06,2.18-2.62,3.26-6.07,3.26-10.34,0-3.84-.96-6.89-2.9-9.14-1.87-2.18-4.46-3.27-7.75-3.27ZM701.4,545.44c0-2.47.75-4.53,2.24-6.2,1.49-1.67,3.46-2.52,5.92-2.58.07,0,.14,0,.22,0,2.22,0,3.98.76,5.29,2.27,1.35,1.56,2.04,3.75,2.04,6.57,0,3.35-.73,5.98-2.18,7.88-1.45,1.9-3.45,2.88-6.01,2.94-.07,0-.14,0-.21,0-2.09,0-3.81-.69-5.18-2.06-1.42-1.42-2.12-3.17-2.12-5.26v-3.55Z"/>
        <path class="cls-2" d="M738.4,532.47c-.13,0-.26,0-.39,0-3.42.07-6.45.94-9.07,2.59l-.03.02v4.36l.11-.09c2.57-2.13,5.44-3.23,8.63-3.3.07,0,.13,0,.2,0,1.75,0,3.04.53,3.91,1.57.86,1.03,1.3,2.59,1.3,4.67l-7.92,1.23c-2.93.45-5.14,1.39-6.62,2.82-1.48,1.43-2.22,3.35-2.22,5.74,0,2.24.76,4.02,2.27,5.35,1.45,1.27,3.43,1.9,5.93,1.9.11,0,.22,0,.33,0,1.81-.04,3.4-.46,4.78-1.26,1.36-.79,2.51-1.96,3.44-3.49v3.97l4.4-.1v-16.62c0-3.11-.75-5.45-2.27-7.02-1.51-1.57-3.78-2.35-6.79-2.34ZM743.06,545.69v2.46c0,2.16-.68,3.94-2.05,5.38-1.37,1.43-3.09,2.17-5.19,2.22-.06,0-.13,0-.19,0-1.44,0-2.59-.36-3.47-1.09h0c-.91-.76-1.36-1.74-1.36-2.96,0-.85.12-1.56.37-2.15.25-.59.61-1.05,1.11-1.39.99-.68,2.47-1.18,4.44-1.49l6.34-.97Z"/>
        <path class="cls-2" d="M776.58,532.24l-4.46.1-7.58,19.84h0c-.25.84-.42,1.45-.51,1.85h-.05c-.27-1.01-.45-1.63-.53-1.88l-7.21-19.47-4.88.11,10.42,25.24-2.12,4.84h0c-.53,1.23-1.2,2.15-1.99,2.78-.79.62-1.72.94-2.78.97-.04,0-.09,0-.13,0-.72,0-1.51-.13-2.37-.39l-.09-.03v3.8h.05c.67.19,1.49.28,2.44.28.12,0,.23,0,.35,0,1.99-.04,3.76-.75,5.3-2.11,1.54-1.36,2.86-3.37,3.95-6.04l12.27-29.88h-.1Z"/>
      </g>
      <g>
        <polygon class="cls-2" points="376.63 560.72 376.93 560.72 380.78 560.72 380.78 557.33 376.63 557.33 376.63 560.72"/>
        <polygon class="cls-2" points="395.8 540.02 395.5 540.02 392.32 540.02 392.32 543.35 395.8 543.35 395.8 540.02"/>
        <polygon class="cls-2" points="390.68 540.02 390.38 540.02 387.23 540.02 387.23 543.35 390.68 543.35 390.68 540.02"/>
        <polygon class="cls-2" points="405.63 541.18 405.33 541.18 402.18 541.18 402.18 544.51 405.63 544.51 405.63 541.18"/>
        <polygon class="cls-2" points="410.75 541.18 410.45 541.18 407.27 541.18 407.27 544.51 410.75 544.51 410.75 541.18"/>
        <path class="cls-2" d="M449.04,545.7l-.19.24.19-.24c-.63-.5-1.36-.88-2.18-1.14-.82-.25-1.72-.38-2.69-.38-1.29,0-2.44.23-3.46.69-1.02.46-1.84,1.18-2.44,2.12-.6.95-.9,2.08-.9,3.36,0,.58.15,1.16.43,1.74.18.37.4.7.64.98h-3.68c-.2,0-.37-.03-.5-.08-.2-.08-.33-.2-.43-.4-.1-.2-.16-.49-.16-.88v-5.97h-4.15v6.09c0,.27-.03.48-.09.66-.06.17-.14.3-.25.39-.11.1-.25.18-.45.24-.19.06-.43.09-.72.09-.6,0-1.03-.13-1.32-.35-.14-.11-.24-.23-.31-.4-.07-.17-.11-.37-.11-.63v-5.59h-4.15v5.59c0,.27-.03.48-.09.66-.06.17-.14.3-.25.39-.11.1-.25.18-.45.24-.19.06-.43.09-.72.09-.6,0-1.03-.13-1.32-.35-.14-.11-.24-.23-.31-.4-.07-.17-.11-.37-.11-.63v-5.15h-4.15v5.03c0,.52-.11.86-.28,1.05-.08.1-.19.17-.32.23-.13.05-.3.08-.5.08h-2.75c-.5,0-.9-.16-1.28-.51-.18-.16-.31-.36-.4-.61-.09-.25-.14-.55-.14-.9v-5.31h-4.15v5.79c0,.29-.04.54-.12.73-.07.19-.18.33-.32.45-.32.26-.64.37-.99.38h-5.67c.25-.29.47-.62.66-.99.29-.58.45-1.16.45-1.73,0-1-.17-1.9-.53-2.7-.35-.79-.85-1.45-1.49-1.96-.63-.5-1.36-.88-2.18-1.14-.82-.25-1.72-.38-2.69-.38-1.97,0-3.61.54-4.87,1.62-.63.55-1.12,1.2-1.43,1.97-.32.76-.47,1.63-.47,2.58,0,.58.15,1.16.43,1.74.18.37.4.7.64.99h-3.32c-.5,0-.9-.16-1.28-.51-.18-.16-.31-.36-.4-.61-.09-.25-.14-.55-.14-.9v-5.31h-4.15v5.79c0,.29-.04.54-.12.73-.07.19-.18.33-.32.45-.32.26-.64.37-.99.38h-3.85c-.3,0-.58-.04-.85-.11-.27-.07-.52-.18-.75-.33-.22-.14-.39-.33-.53-.58-.13-.24-.2-.53-.2-.87v-12.34h-4.15v12.89c0,1.41-.09,2.58-.27,3.49-.18.91-.47,1.62-.85,2.13-.38.52-.84.88-1.39,1.09-.56.22-1.27.33-2.15.33-1.17,0-2.06-.21-2.7-.6-.62-.38-1.11-1.06-1.45-2.09-.33-1.02-.51-2.48-.51-4.35v-.3h-3.81v.3c0,1.29.07,2.43.2,3.41.13.99.38,1.94.75,2.84.37.91.87,1.68,1.5,2.27.63.6,1.45,1.06,2.44,1.4,1,.34,2.17.51,3.5.51,1.88,0,3.45-.29,4.71-.88,1.25-.59,2.21-1.46,2.85-2.59.53-.93.9-2.08,1.12-3.41.19.25.44.47.75.66.58.36,1.19.55,1.8.55h3.85c.71,0,1.47-.13,2.26-.39.71-.23,1.34-.6,1.87-1.11.36.38.79.71,1.31.98.64.34,1.29.52,1.95.52h20.49c.71,0,1.47-.13,2.26-.39.71-.23,1.34-.6,1.87-1.11.36.38.79.71,1.31.98.64.34,1.29.52,1.95.52h4.63c.64,0,1.25-.22,1.82-.63.27-.2.49-.38.65-.56.02-.02.04-.05.06-.07.26.36.65.66,1.15.88.67.31,1.47.46,2.38.46.93,0,1.74-.13,2.42-.42.56-.23,1.03-.57,1.4-.99.09.14.2.27.33.39.23.22.52.4.86.55.68.31,1.48.46,2.39.46.93,0,1.73-.13,2.41-.42.56-.23,1.02-.56,1.4-.99.23.36.57.65,1,.88.55.3,1.11.46,1.67.46h8.73c.97,0,1.86-.13,2.69-.38.82-.25,1.55-.63,2.18-1.13.64-.5,1.13-1.16,1.48-1.95.35-.79.53-1.69.53-2.69,0-1-.17-1.9-.52-2.7-.35-.79-.85-1.45-1.48-1.96ZM446.07,552.45c-.22.26-.48.45-.79.58-.31.13-.68.2-1.11.2-.44,0-.81-.07-1.12-.19-.32-.13-.58-.31-.8-.57-.44-.51-.67-1.2-.68-2.11,0-.88.23-1.57.68-2.11.22-.27.48-.46.8-.6.31-.13.68-.2,1.11-.2.43,0,.8.07,1.11.2.31.13.57.33.79.6.45.55.68,1.23.68,2.11,0,.88-.23,1.56-.68,2.09l.23.19-.23-.19ZM390.12,548.25c.22-.27.48-.46.79-.6.31-.13.68-.2,1.11-.2.43,0,.8.07,1.11.2.31.13.58.33.8.6.45.55.68,1.23.69,2.11,0,.91-.23,1.6-.68,2.11-.22.25-.48.44-.8.57-.32.13-.69.19-1.12.19-.44,0-.81-.07-1.12-.19-.31-.13-.57-.31-.79-.57-.44-.51-.67-1.2-.67-2.11,0-.88.23-1.57.68-2.11Z"/>
        <polygon class="cls-2" points="460.68 567.27 460.98 567.27 464.12 567.27 464.12 563.94 460.68 563.94 460.68 567.27"/>
        <polygon class="cls-2" points="465.77 567.27 466.07 567.27 469.25 567.27 469.25 563.94 465.77 563.94 465.77 567.27"/>
        <polygon class="cls-2" points="483.09 541.11 482.79 541.11 478.95 541.11 478.95 544.51 483.09 544.51 483.09 541.11"/>
        <polygon class="cls-2" points="490.46 560.72 490.76 560.72 494.61 560.72 494.61 557.33 490.46 557.33 490.46 560.72"/>
        <path class="cls-2" d="M501.91,553.08h-5.09c-.5,0-.9-.16-1.28-.51-.18-.17-.31-.36-.4-.61-.09-.25-.14-.55-.14-.9v-5.31h-4.15v5.79c0,.29-.04.54-.12.73-.08.19-.18.33-.32.45-.32.26-.64.37-.99.38h-4.44c-.5,0-.9-.16-1.28-.51-.18-.17-.31-.36-.4-.61-.09-.25-.14-.55-.14-.9v-5.31h-4.15v5.79c0,.29-.04.54-.12.73-.08.19-.18.33-.32.45-.32.26-.64.37-.99.38h-6.72c-.56,0-1.25-.07-2.07-.21-.81-.14-1.39-.31-1.72-.49l-.45-.25v3.39l.14.09c.46.3.96.52,1.5.67.53.14,1,.22,1.43.22.1,0,.19.02.28.07.09.05.18.13.27.26.2.27.27.49.27.64,0,.37-.1.66-.3.93-.2.26-.52.5-.97.69-.91.39-2.19.6-3.84.6-1.08,0-2-.1-2.75-.3-.74-.2-1.36-.53-1.88-.99-.51-.45-.9-1.06-1.16-1.84-.26-.78-.4-1.77-.4-2.96v-.3h-3.68v.31c.02,1.17.13,2.22.32,3.15.2.93.53,1.81,1,2.62.47.82,1.08,1.5,1.83,2.04.75.54,1.68.96,2.8,1.26,1.12.3,2.41.45,3.87.45,1.28,0,2.47-.14,3.57-.42,1.1-.28,2.01-.64,2.74-1.11.72-.46,1.29-.98,1.7-1.57.41-.59.63-1.2.63-1.83,0-.37-.09-.77-.25-1.18-.07-.19-.16-.36-.25-.52h4.07c.71,0,1.47-.13,2.26-.39.71-.23,1.34-.6,1.87-1.11.36.38.79.71,1.31.98.64.34,1.29.52,1.95.52h4.44c.71,0,1.47-.13,2.26-.39.71-.23,1.34-.6,1.87-1.11.36.38.79.71,1.31.98.64.34,1.29.52,1.95.52h9.24v-10.76h-4.15v7.34Z"/>
        <polygon class="cls-2" points="501.91 544.51 502.22 544.51 506.06 544.51 506.06 541.11 501.91 541.11 501.91 544.51"/>
        <path class="cls-2" d="M535.31,553.08h-4.49c-.3,0-.58-.04-.85-.11-.27-.07-.52-.18-.75-.33-.22-.14-.39-.33-.53-.58-.13-.24-.2-.53-.2-.87v-12.34h-4.15v12.89c0,1.41-.09,2.58-.27,3.49-.18.91-.47,1.62-.85,2.13-.38.52-.84.88-1.39,1.09-.56.22-1.27.33-2.15.33-1.17,0-2.06-.21-2.7-.6-.62-.38-1.11-1.06-1.45-2.09-.33-1.02-.51-2.48-.51-4.35v-.3h-3.81v.3c0,1.29.07,2.43.2,3.41.13.99.38,1.94.75,2.84.37.91.87,1.68,1.5,2.27.63.6,1.45,1.06,2.44,1.4,1,.34,2.17.51,3.5.51,1.88,0,3.45-.29,4.71-.88,1.25-.59,2.21-1.46,2.85-2.59.53-.93.9-2.08,1.12-3.41.19.25.44.47.75.66.58.36,1.19.55,1.8.55h8.64v-10.76h-4.15v7.34Z"/>
        <polygon class="cls-2" points="533.43 561.2 533.73 561.2 537.56 561.2 537.56 557.81 533.43 557.81 533.43 561.2"/>
        <polygon class="cls-2" points="556.27 540.07 555.97 540.07 552.8 540.07 552.8 543.4 556.27 543.4 556.27 540.07"/>
        <polygon class="cls-2" points="551.15 540.07 550.85 540.07 547.7 540.07 547.7 543.4 551.15 543.4 551.15 540.07"/>
        <path class="cls-2" d="M571.45,545.7l-.19.24.19-.24c-.63-.5-1.36-.88-2.18-1.14-.82-.25-1.72-.38-2.69-.38-1.29,0-2.44.23-3.46.69-1.02.46-1.84,1.18-2.44,2.12-.6.95-.9,2.08-.9,3.36,0,.58.15,1.16.43,1.74.18.37.4.7.64.98h-2.31c-.34,0-.62-.04-.84-.12-.22-.08-.37-.19-.49-.33-.12-.14-.22-.35-.29-.64-.07-.29-.11-.65-.11-1.09v-6.31h-6.06c-1.02,0-1.94.14-2.75.44-.81.29-1.48.71-2.01,1.24-.52.53-.91,1.15-1.17,1.85-.26.7-.39,1.46-.39,2.28,0,1.07.28,2.04.84,2.87.55.83,1.29,1.47,2.2,1.9.9.43,1.9.64,2.98.64.81,0,1.57-.18,2.28-.53.54-.27,1-.61,1.38-1,.31.61.74,1.11,1.28,1.5.68.48,1.48.73,2.37.73h8.8c.97,0,1.86-.13,2.69-.38.82-.25,1.55-.63,2.18-1.13.64-.5,1.13-1.16,1.48-1.95.35-.79.53-1.69.53-2.69,0-1-.17-1.9-.52-2.7-.35-.79-.85-1.45-1.48-1.96ZM568.48,552.45c-.22.26-.48.45-.79.58-.31.13-.68.2-1.11.2-.44,0-.81-.07-1.12-.19-.32-.13-.58-.31-.8-.57-.44-.51-.67-1.2-.68-2.11,0-.88.23-1.57.68-2.11.22-.27.48-.46.8-.6.31-.13.68-.2,1.11-.2.43,0,.8.07,1.11.2.31.13.57.33.79.6.45.55.68,1.23.68,2.11,0,.88-.23,1.56-.68,2.09l.23.19-.23-.19ZM552.88,550.22c0,.41-.06.75-.16,1.03-.11.28-.26.51-.47.69-.44.38-.95.57-1.6.57-.38,0-.71-.05-.98-.14-.27-.09-.5-.22-.68-.39-.18-.17-.32-.38-.41-.64-.09-.26-.14-.57-.14-.94,0-.82.21-1.41.6-1.84.19-.21.43-.37.71-.48.29-.11.63-.17,1.03-.17h2.11v2.29Z"/>
        <polygon class="cls-2" points="598.42 539.79 598.12 539.79 594.27 539.79 594.27 543.17 598.42 543.17 598.42 539.79"/>
        <path class="cls-2" d="M604.83,554.37c-.09-.54-.23-1.64-.42-3.27h0c-.11-1.01-.36-1.93-.75-2.75-.39-.83-.91-1.56-1.57-2.18-.66-.63-1.49-1.12-2.46-1.46-.98-.34-2.07-.51-3.28-.51-1.27,0-2.48.24-3.61.73-1.13.49-2.07,1.18-2.79,2.07-.73.9-1.14,1.91-1.21,3l-.02.32h3.77l.04-.25c.05-.32.18-.62.39-.92.21-.3.51-.59.9-.87.77-.56,1.6-.83,2.53-.83,1.04,0,1.89.31,2.6.94.71.63,1.14,1.47,1.31,2.56h0c.1.66.23,1.37.4,2.13h-13.56c-.83,0-1.42-.15-1.78-.4-.18-.13-.31-.28-.4-.46-.09-.18-.15-.4-.16-.67v-.47c0-.87-.12-1.67-.36-2.4-.24-.72-.58-1.33-1.01-1.84-.43-.5-.94-.92-1.53-1.26-.59-.34-1.23-.58-1.91-.74-.68-.16-1.4-.24-2.16-.25h-2.87v3.26h2.87c.43,0,.8.08,1.13.24.33.16.63.4.89.73.52.66.79,1.53.79,2.65v1.61h-6.78v3.42h10.18l.09-.12c.17-.24.32-.51.44-.82.03-.07.04-.13.06-.19.22.27.51.5.86.68.55.3,1.11.46,1.67.46h18.22l-.1-.38c-.17-.63-.3-1.22-.39-1.76Z"/>
        <polygon class="cls-2" points="629.06 560.65 629.36 560.65 632.5 560.65 632.5 557.33 629.06 557.33 629.06 560.65"/>
        <polygon class="cls-2" points="634.16 560.65 634.46 560.65 637.62 560.65 637.62 557.33 634.16 557.33 634.16 560.65"/>
        <polygon class="cls-2" points="644.4 560.72 644.7 560.72 648.55 560.72 648.55 557.33 644.4 557.33 644.4 560.72"/>
        <path class="cls-2" d="M655.85,553.08h-5.09c-.5,0-.9-.16-1.28-.51-.18-.17-.31-.36-.4-.61-.09-.25-.14-.55-.14-.9v-5.31h-4.15v5.79c0,.29-.04.54-.12.73-.08.19-.18.33-.32.45-.32.26-.64.37-.99.38h-4.44c-.5,0-.9-.16-1.28-.51-.18-.17-.31-.36-.4-.61-.09-.25-.14-.55-.14-.9v-5.31h-4.15v5.79c0,.29-.04.54-.12.73-.08.19-.18.33-.32.45-.32.26-.64.37-.99.38h-3.35s-2.88.02-2.88.02c.51-.53.88-1.05,1.08-1.57.25-.63.37-1.29.37-1.98,0-.77-.11-1.45-.35-2.03-.23-.59-.59-1.08-1.07-1.46-.94-.75-2.21-1.11-3.78-1.11h-10.47v.87l.1.09c.36.33.74.86,1.12,1.58.39.73.72,1.45,1,2.14.28.72.62,1.45,1,2.19.28.54.55.98.83,1.33-.74.09-1.42.26-2.05.55-.77.35-1.4.79-1.88,1.34-.47.53-.84,1.12-1.09,1.75-.25.63-.38,1.29-.38,1.96,0,1.23.42,2.35,1.24,3.32l.09.11h4.1l-.34-.48c-.38-.53-.64-1.01-.78-1.42-.14-.41-.22-.89-.22-1.46,0-.31.05-.59.16-.86.1-.26.26-.51.47-.73.2-.21.48-.39.84-.52.36-.13.78-.2,1.27-.2h14.96c.71,0,1.47-.13,2.26-.39.71-.23,1.34-.6,1.87-1.11.36.38.79.71,1.31.98.64.34,1.29.52,1.95.52h4.44c.71,0,1.47-.13,2.26-.39.71-.23,1.34-.6,1.87-1.11.36.38.79.71,1.31.98.64.34,1.29.52,1.95.52h9.24v-10.76h-4.15v7.34ZM622.24,551.13c-.25.58-.61,1.08-1.1,1.5-.48.41-.97.61-1.52.61-.28,0-.54-.11-.82-.39-.29-.29-.54-.66-.75-1.12-.22-.48-.42-.97-.6-1.47-.18-.51-.38-1-.59-1.46-.09-.2-.17-.37-.26-.52h4.3c.54,0,.96.12,1.28.33.15.1.26.22.33.35.07.13.11.3.11.5,0,.53-.12,1.08-.37,1.67h0Z"/>
        <polygon class="cls-2" points="655.85 544.51 656.16 544.51 660 544.51 660 541.11 655.85 541.11 655.85 544.51"/>
        <polygon class="cls-2" points="676.61 538.85 676.61 539.16 676.61 553.08 672.53 553.08 672.53 543.24 668.38 543.24 668.38 553.08 665.64 553.08 665.64 556.51 680.76 556.51 680.76 538.85 676.61 538.85"/>
      </g>
    </g>
  </g>
</svg>