<svg width="700" height="321" viewBox="0 0 700 321" fill="none" xmlns="http://www.w3.org/2000/svg">
<path d="M138.73 90.0751H230.23L250.75 63.7051H159.25L138.73 90.0751Z" fill="#1DA54C"/>
<path d="M73.69 173.555H165.19L185.72 147.195H94.22L73.69 173.555Z" fill="#1DA54C"/>
<path d="M100.02 215.295H132.76L153.28 188.935H120.54L100.02 215.295Z" fill="#1DA54C"/>
<path d="M31.71 131.815H197.75L218.27 105.445H52.24L31.71 131.815Z" fill="#1DA54C"/>
<path d="M282.9 168.515C282.9 173.425 281.88 177.115 279.86 179.585C277.84 182.055 274.82 183.345 270.75 183.435C270.6 183.435 270.45 183.435 270.3 183.435C266.31 183.435 263.34 182.195 261.36 179.715C259.38 177.235 258.37 173.505 258.38 168.515V131.805L243.25 132.135V168.665C243.25 177.745 245.4 184.575 249.73 189.135C254.06 193.695 260.54 195.965 269.15 195.965C269.5 195.965 269.85 195.965 270.21 195.955C279.45 195.755 286.41 193.235 291.05 188.365C295.69 183.505 298 176.315 298 166.825V130.955L282.91 131.285V168.515H282.9Z" fill="#EFE8E8"/>
<path d="M317.52 193.985L332.29 193.665V193.545V126.755L317.52 127.075V193.985Z" fill="#EFE8E8"/>
<path d="M369.25 134.025H354.53V148.055L346.9 148.225V158.715L354.53 158.545V179.045C354.53 184.045 355.76 187.815 358.24 190.335C360.72 192.855 364.44 194.105 369.36 194.105C369.57 194.105 369.78 194.105 370 194.105C374.33 194.015 377.58 193.395 379.75 192.255L379.81 192.225V181.655L379.63 181.755C378.02 182.635 376.46 183.085 374.95 183.115C374.88 183.115 374.81 183.115 374.74 183.115C372.89 183.115 371.53 182.555 370.61 181.435C369.7 180.315 369.23 178.615 369.23 176.325V158.235L379.8 158.005V147.515L369.23 147.745V134.035L369.25 134.025Z" fill="#EFE8E8"/>
<path d="M408.22 127.635C406.71 126.375 404.76 125.755 402.39 125.755C402.29 125.755 402.19 125.755 402.09 125.755C399.62 125.805 397.58 126.515 395.99 127.895C394.4 129.265 393.6 131.025 393.6 133.135C393.6 135.185 394.4 136.925 395.99 138.295C397.52 139.625 399.47 140.285 401.82 140.285C401.91 140.285 402 140.285 402.1 140.285C404.6 140.235 406.65 139.505 408.22 138.105C409.79 136.705 410.58 134.915 410.58 132.775C410.58 130.665 409.79 128.935 408.22 127.635Z" fill="#EFE8E8"/>
<path d="M394.63 192.605L409.39 192.285V192.175V147.015L394.63 147.335V192.605Z" fill="#EFE8E8"/>
<path d="M489.16 144.365C488.98 144.365 488.79 144.365 488.6 144.365C481.69 144.515 476.41 147.395 472.81 152.975C471.61 150.355 469.94 148.375 467.78 147.045C465.57 145.675 462.85 144.995 459.65 144.995C459.48 144.995 459.31 144.995 459.14 144.995C455.9 145.065 452.92 145.895 450.19 147.465C447.49 149.025 445.38 151.025 443.87 153.455V146.425L429.11 146.745V192.015L443.87 191.695V166.555C443.87 163.345 444.61 160.815 446.07 158.925C447.54 157.045 449.48 156.085 451.93 156.025C452.01 156.025 452.09 156.025 452.18 156.025C454.54 156.025 456.28 156.795 457.45 158.325C458.62 159.855 459.21 162.175 459.21 165.285V191.355L473.97 191.035V165.725C473.97 162.815 474.71 160.375 476.2 158.405C477.68 156.435 479.59 155.435 481.94 155.385C482.02 155.385 482.1 155.385 482.18 155.385C484.59 155.385 486.36 156.175 487.55 157.745C488.74 159.325 489.35 161.705 489.35 164.905V190.705L504.07 190.385V162.255C504.07 156.315 502.83 151.835 500.34 148.835C497.85 145.835 494.1 144.345 489.15 144.345L489.16 144.365Z" fill="#EFE8E8"/>
<path d="M543.1 143.365C542.8 143.365 542.5 143.365 542.19 143.365C539.3 143.425 536.1 143.875 532.58 144.715C529.07 145.555 526.29 146.495 524.26 147.545L524.19 147.575V158.335L524.38 158.215C529.42 154.925 534.73 153.215 540.31 153.095C540.44 153.095 540.57 153.095 540.7 153.095C543.34 153.095 545.3 153.695 546.6 154.865C547.88 156.025 548.53 157.745 548.55 160.075L535.88 161.965C530.46 162.755 526.38 164.455 523.65 167.055C520.92 169.655 519.56 173.175 519.56 177.565C519.56 181.725 520.88 185.045 523.53 187.485C526.07 189.835 529.52 191.005 533.86 191.005C534.04 191.005 534.22 191.005 534.4 191.005C540.6 190.875 545.31 188.245 548.48 183.145V189.605L562.46 189.305V162.275C562.46 155.995 560.85 151.265 557.62 148.095C554.39 144.935 549.54 143.365 543.12 143.365H543.1ZM548.55 171.195C548.55 173.925 547.7 176.185 546.01 178.005C544.31 179.825 542.13 180.755 539.43 180.815C539.35 180.815 539.27 180.815 539.19 180.815C537.36 180.815 535.92 180.345 534.84 179.425C533.72 178.455 533.16 177.215 533.16 175.665C533.16 173.945 533.74 172.595 534.89 171.575C536.04 170.555 537.79 169.865 540.14 169.525L548.55 168.305V171.205V171.195Z" fill="#EFE8E8"/>
<path d="M585.67 174.705C585.67 179.705 586.9 183.475 589.38 185.995C591.86 188.515 595.58 189.765 600.5 189.765C600.71 189.765 600.93 189.765 601.14 189.765C605.47 189.675 608.72 189.055 610.89 187.915L610.95 187.885V177.315L610.77 177.415C609.16 178.295 607.6 178.745 606.09 178.775C606.02 178.775 605.96 178.775 605.89 178.775C604.03 178.775 602.67 178.215 601.76 177.095C600.85 175.975 600.38 174.275 600.38 171.985V153.895L610.95 153.665V143.175L600.38 143.405V129.695H585.66V143.725L578.03 143.895V154.385L585.66 154.215V174.715L585.67 174.705Z" fill="#EFE8E8"/>
<path d="M629.3 183.215C633.36 187.025 638.99 188.925 646.17 188.925C646.47 188.925 646.77 188.925 647.08 188.925C654.05 188.775 659.72 187.535 664.09 185.205L664.15 185.175V174.855L663.97 174.965C660.07 177.385 655.54 178.645 650.38 178.765C650.17 178.765 649.96 178.765 649.75 178.765C645.91 178.765 642.99 177.975 640.97 176.405C638.98 174.865 637.86 172.555 637.6 169.465L668.29 168.805V162.835C668.29 156.125 666.4 150.845 662.63 146.995C658.99 143.295 653.9 141.445 647.38 141.445C647.13 141.445 646.87 141.445 646.61 141.445C639.96 141.585 634.35 143.905 629.8 148.395C625.24 152.885 622.96 158.895 622.96 166.395C622.96 173.625 625.07 179.245 629.3 183.205V183.215ZM637.52 160.685C637.9 158.005 638.92 155.755 640.57 153.915C642.25 152.055 644.23 151.105 646.53 151.055C646.63 151.055 646.73 151.055 646.82 151.055C649.43 151.055 651.35 151.835 652.64 153.385C653.91 154.915 654.57 157.225 654.58 160.315L637.52 160.685Z" fill="#EFE8E8"/>
<path d="M602.57 219.115C602.46 219.115 602.35 219.115 602.24 219.115C600.21 219.155 598.43 219.625 596.88 220.505C595.35 221.385 594.06 222.675 593.01 224.375V219.905L588.61 220.005V257.295L593.01 257.195V241.815C594.84 244.545 597.43 245.925 600.75 245.915C600.84 245.915 600.93 245.915 601.02 245.915C604.79 245.835 607.78 244.485 609.95 241.855C612.13 239.235 613.21 235.785 613.21 231.515C613.21 227.675 612.25 224.625 610.31 222.375C608.44 220.195 605.85 219.105 602.56 219.105L602.57 219.115ZM593.01 231.485C593.01 229.015 593.76 226.955 595.25 225.285C596.74 223.615 598.71 222.765 601.17 222.705C601.24 222.705 601.31 222.705 601.39 222.705C603.61 222.705 605.37 223.465 606.68 224.975C608.03 226.535 608.72 228.725 608.72 231.545C608.72 234.895 607.99 237.525 606.54 239.425C605.09 241.325 603.09 242.305 600.53 242.365C600.46 242.365 600.39 242.365 600.32 242.365C598.23 242.365 596.51 241.675 595.14 240.305C593.72 238.885 593.02 237.135 593.02 235.045V231.495L593.01 231.485Z" fill="#EFE8E8"/>
<path d="M630.01 218.515C629.88 218.515 629.75 218.515 629.62 218.515C626.2 218.585 623.17 219.455 620.55 221.105L620.52 221.125V225.485L620.63 225.395C623.2 223.265 626.07 222.165 629.26 222.095C629.33 222.095 629.39 222.095 629.46 222.095C631.21 222.095 632.5 222.625 633.37 223.665C634.23 224.695 634.67 226.255 634.67 228.335L626.75 229.565C623.82 230.015 621.61 230.955 620.13 232.385C618.65 233.815 617.91 235.735 617.91 238.125C617.91 240.365 618.67 242.145 620.18 243.475C621.63 244.745 623.61 245.375 626.11 245.375C626.22 245.375 626.33 245.375 626.44 245.375C628.25 245.335 629.84 244.915 631.22 244.115C632.58 243.325 633.73 242.155 634.66 240.625V244.595L639.06 244.495V227.875C639.06 224.765 638.31 222.425 636.79 220.855C635.28 219.285 633.01 218.505 630 218.515H630.01ZM634.67 231.735V234.195C634.67 236.355 633.99 238.135 632.62 239.575C631.25 241.005 629.53 241.745 627.43 241.795C627.37 241.795 627.3 241.795 627.24 241.795C625.8 241.795 624.65 241.435 623.77 240.705C622.86 239.945 622.41 238.965 622.41 237.745C622.41 236.895 622.53 236.185 622.78 235.595C623.03 235.005 623.39 234.545 623.89 234.205C624.88 233.525 626.36 233.025 628.33 232.715L634.67 231.745V231.735Z" fill="#EFE8E8"/>
<path d="M668.19 218.285L663.73 218.385L656.15 238.225C655.9 239.065 655.73 239.675 655.64 240.075H655.59C655.32 239.065 655.14 238.445 655.06 238.195L647.85 218.725L642.97 218.835L653.39 244.075L651.27 248.915C650.74 250.145 650.07 251.065 649.28 251.695C648.49 252.315 647.56 252.635 646.5 252.665C646.46 252.665 646.41 252.665 646.37 252.665C645.65 252.665 644.86 252.535 644 252.275L643.91 252.245V256.045H643.96C644.63 256.235 645.45 256.325 646.4 256.325C646.52 256.325 646.63 256.325 646.75 256.325C648.74 256.285 650.51 255.575 652.05 254.215C653.59 252.855 654.91 250.845 656 248.175L668.27 218.295H668.17L668.19 218.285Z" fill="#EFE8E8"/>
<path d="M268.24 246.765H268.54H272.39V243.375H268.24V246.765Z" fill="#EFE8E8"/>
<path d="M287.41 226.065H287.11H283.93V229.395H287.41V226.065Z" fill="#EFE8E8"/>
<path d="M282.29 226.065H281.99H278.84V229.395H282.29V226.065Z" fill="#EFE8E8"/>
<path d="M297.24 227.225H296.94H293.79V230.555H297.24V227.225Z" fill="#EFE8E8"/>
<path d="M302.36 227.225H302.06H298.88V230.555H302.36V227.225Z" fill="#EFE8E8"/>
<path d="M340.65 231.745C340.02 231.245 339.29 230.865 338.47 230.605C337.65 230.355 336.75 230.225 335.78 230.225C334.49 230.225 333.34 230.455 332.32 230.915C331.3 231.375 330.48 232.095 329.88 233.035C329.28 233.985 328.98 235.115 328.98 236.395C328.98 236.975 329.13 237.555 329.41 238.135C329.59 238.505 329.81 238.835 330.05 239.115H326.37C326.17 239.115 326 239.085 325.87 239.035C325.67 238.955 325.54 238.835 325.44 238.635C325.34 238.435 325.28 238.145 325.28 237.755V231.785H321.13V237.875C321.13 238.145 321.1 238.355 321.04 238.535C320.98 238.705 320.9 238.835 320.79 238.925C320.68 239.025 320.54 239.105 320.34 239.165C320.15 239.225 319.91 239.255 319.62 239.255C319.02 239.255 318.59 239.125 318.3 238.905C318.16 238.795 318.06 238.675 317.99 238.505C317.92 238.335 317.88 238.135 317.88 237.875V232.285H313.73V237.875C313.73 238.145 313.7 238.355 313.64 238.535C313.58 238.705 313.5 238.835 313.39 238.925C313.28 239.025 313.14 239.105 312.94 239.165C312.75 239.225 312.51 239.255 312.22 239.255C311.62 239.255 311.19 239.125 310.9 238.905C310.76 238.795 310.66 238.675 310.59 238.505C310.52 238.335 310.48 238.135 310.48 237.875V232.725H306.33V237.755C306.33 238.275 306.22 238.615 306.05 238.805C305.97 238.905 305.86 238.975 305.73 239.035C305.6 239.085 305.43 239.115 305.23 239.115H302.48C301.98 239.115 301.58 238.955 301.2 238.605C301.02 238.445 300.89 238.245 300.8 237.995C300.71 237.745 300.66 237.445 300.66 237.095V231.785H296.51V237.575C296.51 237.865 296.47 238.115 296.39 238.305C296.32 238.495 296.21 238.635 296.07 238.755C295.75 239.015 295.43 239.125 295.08 239.135H289.41C289.66 238.845 289.88 238.515 290.07 238.145C290.36 237.565 290.52 236.985 290.52 236.415C290.52 235.415 290.35 234.515 289.99 233.715C289.64 232.925 289.14 232.265 288.5 231.755C287.87 231.255 287.14 230.875 286.32 230.615C285.5 230.365 284.6 230.235 283.63 230.235C281.66 230.235 280.02 230.775 278.76 231.855C278.13 232.405 277.64 233.055 277.33 233.825C277.01 234.585 276.86 235.455 276.86 236.405C276.86 236.985 277.01 237.565 277.29 238.145C277.47 238.515 277.69 238.845 277.93 239.135H274.61C274.11 239.135 273.71 238.975 273.33 238.625C273.15 238.465 273.02 238.265 272.93 238.015C272.84 237.765 272.79 237.465 272.79 237.115V231.805H268.64V237.595C268.64 237.885 268.6 238.135 268.52 238.325C268.45 238.515 268.34 238.655 268.2 238.775C267.88 239.035 267.56 239.145 267.21 239.155H263.36C263.06 239.155 262.78 239.115 262.51 239.045C262.24 238.975 261.99 238.865 261.76 238.715C261.54 238.575 261.37 238.385 261.23 238.135C261.1 237.895 261.03 237.605 261.03 237.265V224.925H256.88V237.815C256.88 239.225 256.79 240.395 256.61 241.305C256.43 242.215 256.14 242.925 255.76 243.435C255.38 243.955 254.92 244.315 254.37 244.525C253.81 244.745 253.1 244.855 252.22 244.855C251.05 244.855 250.16 244.645 249.52 244.255C248.9 243.875 248.41 243.195 248.07 242.165C247.74 241.145 247.56 239.685 247.56 237.815V237.515H243.75V237.815C243.75 239.105 243.82 240.245 243.95 241.225C244.08 242.215 244.33 243.165 244.7 244.065C245.07 244.975 245.57 245.745 246.2 246.335C246.83 246.935 247.65 247.395 248.64 247.735C249.64 248.075 250.81 248.245 252.14 248.245C254.02 248.245 255.59 247.955 256.85 247.365C258.1 246.775 259.06 245.905 259.7 244.775C260.23 243.845 260.6 242.695 260.82 241.365C261.01 241.615 261.26 241.835 261.57 242.025C262.15 242.385 262.76 242.575 263.37 242.575H267.22C267.93 242.575 268.69 242.445 269.48 242.185C270.19 241.955 270.82 241.585 271.35 241.075C271.71 241.455 272.14 241.785 272.66 242.055C273.3 242.395 273.95 242.575 274.61 242.575H295.1C295.81 242.575 296.57 242.445 297.36 242.185C298.07 241.955 298.7 241.585 299.23 241.075C299.59 241.455 300.02 241.785 300.54 242.055C301.18 242.395 301.83 242.575 302.49 242.575H307.12C307.76 242.575 308.37 242.355 308.94 241.945C309.21 241.745 309.43 241.565 309.59 241.385C309.61 241.365 309.63 241.335 309.65 241.315C309.91 241.675 310.3 241.975 310.8 242.195C311.47 242.505 312.27 242.655 313.18 242.655C314.11 242.655 314.92 242.525 315.6 242.235C316.16 242.005 316.63 241.665 317 241.245C317.09 241.385 317.2 241.515 317.33 241.635C317.56 241.855 317.85 242.035 318.19 242.185C318.87 242.495 319.67 242.645 320.58 242.645C321.51 242.645 322.31 242.515 322.99 242.225C323.55 241.995 324.01 241.665 324.39 241.235C324.62 241.595 324.96 241.885 325.39 242.115C325.94 242.415 326.5 242.575 327.06 242.575H335.79C336.76 242.575 337.65 242.445 338.48 242.195C339.3 241.945 340.03 241.565 340.66 241.065C341.3 240.565 341.79 239.905 342.14 239.115C342.49 238.325 342.67 237.425 342.67 236.425C342.67 235.425 342.5 234.525 342.15 233.725C341.8 232.935 341.3 232.275 340.67 231.765L340.65 231.745ZM337.68 238.495C337.46 238.755 337.2 238.945 336.89 239.075C336.58 239.205 336.21 239.275 335.78 239.275C335.34 239.275 334.97 239.205 334.66 239.085C334.34 238.955 334.08 238.775 333.86 238.515C333.42 238.005 333.19 237.315 333.18 236.405C333.18 235.525 333.41 234.835 333.86 234.295C334.08 234.025 334.34 233.835 334.66 233.695C334.97 233.565 335.34 233.495 335.77 233.495C336.2 233.495 336.57 233.565 336.88 233.695C337.19 233.825 337.45 234.025 337.67 234.295C338.12 234.845 338.35 235.525 338.35 236.405C338.35 237.285 338.12 237.965 337.67 238.495H337.68ZM281.73 234.295C281.95 234.025 282.21 233.835 282.52 233.695C282.83 233.565 283.2 233.495 283.63 233.495C284.06 233.495 284.43 233.565 284.74 233.695C285.05 233.825 285.32 234.025 285.54 234.295C285.99 234.845 286.22 235.525 286.23 236.405C286.23 237.315 286 238.005 285.55 238.515C285.33 238.765 285.07 238.955 284.75 239.085C284.43 239.215 284.06 239.275 283.63 239.275C283.19 239.275 282.82 239.205 282.51 239.085C282.2 238.955 281.94 238.775 281.72 238.515C281.28 238.005 281.05 237.315 281.05 236.405C281.05 235.525 281.28 234.835 281.73 234.295Z" fill="#EFE8E8"/>
<path d="M352.29 253.315H352.59H355.73V249.985H352.29V253.315Z" fill="#EFE8E8"/>
<path d="M357.38 253.315H357.68H360.86V249.985H357.38V253.315Z" fill="#EFE8E8"/>
<path d="M374.7 227.155H374.4H370.56V230.555H374.7V227.155Z" fill="#EFE8E8"/>
<path d="M382.07 246.765H382.37H386.22V243.375H382.07V246.765Z" fill="#EFE8E8"/>
<path d="M393.52 239.125H388.43C387.93 239.125 387.53 238.965 387.15 238.615C386.97 238.445 386.84 238.255 386.75 238.005C386.66 237.755 386.61 237.455 386.61 237.105V231.795H382.46V237.585C382.46 237.875 382.42 238.125 382.34 238.315C382.26 238.505 382.16 238.645 382.02 238.765C381.7 239.025 381.38 239.135 381.03 239.145H376.59C376.09 239.145 375.69 238.985 375.31 238.635C375.13 238.465 375 238.275 374.91 238.025C374.82 237.775 374.77 237.475 374.77 237.125V231.815H370.62V237.605C370.62 237.895 370.58 238.145 370.5 238.335C370.42 238.525 370.32 238.665 370.18 238.785C369.86 239.045 369.54 239.155 369.19 239.165H362.47C361.91 239.165 361.22 239.095 360.4 238.955C359.59 238.815 359.01 238.645 358.68 238.465L358.23 238.215V241.605L358.37 241.695C358.83 241.995 359.33 242.215 359.87 242.365C360.4 242.505 360.87 242.585 361.3 242.585C361.4 242.585 361.49 242.605 361.58 242.655C361.67 242.705 361.76 242.785 361.85 242.915C362.05 243.185 362.12 243.405 362.12 243.555C362.12 243.925 362.02 244.215 361.82 244.485C361.62 244.745 361.3 244.985 360.85 245.175C359.94 245.565 358.66 245.775 357.01 245.775C355.93 245.775 355.01 245.675 354.26 245.475C353.52 245.275 352.9 244.945 352.38 244.485C351.87 244.035 351.48 243.425 351.22 242.645C350.96 241.865 350.82 240.875 350.82 239.685V239.385H347.14V239.695C347.16 240.865 347.27 241.915 347.46 242.845C347.66 243.775 347.99 244.655 348.46 245.465C348.93 246.285 349.54 246.965 350.29 247.505C351.04 248.045 351.97 248.465 353.09 248.765C354.21 249.065 355.5 249.215 356.96 249.215C358.24 249.215 359.43 249.075 360.53 248.795C361.63 248.515 362.54 248.155 363.27 247.685C363.99 247.225 364.56 246.705 364.97 246.115C365.38 245.525 365.6 244.915 365.6 244.285C365.6 243.915 365.51 243.515 365.35 243.105C365.28 242.915 365.19 242.745 365.1 242.585H369.17C369.88 242.585 370.64 242.455 371.43 242.195C372.14 241.965 372.77 241.595 373.3 241.085C373.66 241.465 374.09 241.795 374.61 242.065C375.25 242.405 375.9 242.585 376.56 242.585H381C381.71 242.585 382.47 242.455 383.26 242.195C383.97 241.965 384.6 241.595 385.13 241.085C385.49 241.465 385.92 241.795 386.44 242.065C387.08 242.405 387.73 242.585 388.39 242.585H397.63V231.825H393.48V239.165L393.52 239.125Z" fill="#EFE8E8"/>
<path d="M393.52 230.555H393.83H397.67V227.155H393.52V230.555Z" fill="#EFE8E8"/>
<path d="M426.92 239.125H422.43C422.13 239.125 421.85 239.085 421.58 239.015C421.31 238.945 421.06 238.835 420.83 238.685C420.61 238.545 420.44 238.355 420.3 238.105C420.17 237.865 420.1 237.575 420.1 237.235V224.895H415.95V237.785C415.95 239.195 415.86 240.365 415.68 241.275C415.5 242.185 415.21 242.895 414.83 243.405C414.45 243.925 413.99 244.285 413.44 244.495C412.88 244.715 412.17 244.825 411.29 244.825C410.12 244.825 409.23 244.615 408.59 244.225C407.97 243.845 407.48 243.165 407.14 242.135C406.81 241.115 406.63 239.655 406.63 237.785V237.485H402.82V237.785C402.82 239.075 402.89 240.215 403.02 241.195C403.15 242.185 403.4 243.135 403.77 244.035C404.14 244.945 404.64 245.715 405.27 246.305C405.9 246.905 406.72 247.365 407.71 247.705C408.71 248.045 409.88 248.215 411.21 248.215C413.09 248.215 414.66 247.925 415.92 247.335C417.17 246.745 418.13 245.875 418.77 244.745C419.3 243.815 419.67 242.665 419.89 241.335C420.08 241.585 420.33 241.805 420.64 241.995C421.22 242.355 421.83 242.545 422.44 242.545H431.08V231.785H426.93V239.125H426.92Z" fill="#EFE8E8"/>
<path d="M425.04 247.245H425.34H429.17V243.855H425.04V247.245Z" fill="#EFE8E8"/>
<path d="M447.88 226.115H447.58H444.41V229.445H447.88V226.115Z" fill="#EFE8E8"/>
<path d="M442.76 226.115H442.46H439.31V229.445H442.76V226.115Z" fill="#EFE8E8"/>
<path d="M463.06 231.745C462.43 231.245 461.7 230.865 460.88 230.605C460.06 230.355 459.16 230.225 458.19 230.225C456.9 230.225 455.75 230.455 454.73 230.915C453.71 231.375 452.89 232.095 452.29 233.035C451.69 233.985 451.39 235.115 451.39 236.395C451.39 236.975 451.54 237.555 451.82 238.135C452 238.505 452.22 238.835 452.46 239.115H450.15C449.81 239.115 449.53 239.075 449.31 238.995C449.09 238.915 448.94 238.805 448.82 238.665C448.7 238.525 448.6 238.315 448.53 238.025C448.46 237.735 448.42 237.375 448.42 236.935V230.625H442.36C441.34 230.625 440.42 230.765 439.61 231.065C438.8 231.355 438.13 231.775 437.6 232.305C437.08 232.835 436.69 233.455 436.43 234.155C436.17 234.855 436.04 235.615 436.04 236.435C436.04 237.505 436.32 238.475 436.88 239.305C437.43 240.135 438.17 240.775 439.08 241.205C439.98 241.635 440.98 241.845 442.06 241.845C442.87 241.845 443.63 241.665 444.34 241.315C444.88 241.045 445.34 240.705 445.72 240.315C446.03 240.925 446.46 241.425 447 241.815C447.68 242.295 448.48 242.545 449.37 242.545H458.17C459.14 242.545 460.03 242.415 460.86 242.165C461.68 241.915 462.41 241.535 463.04 241.035C463.68 240.535 464.17 239.875 464.52 239.085C464.87 238.295 465.05 237.395 465.05 236.395C465.05 235.395 464.88 234.495 464.53 233.695C464.18 232.905 463.68 232.245 463.05 231.735L463.06 231.745ZM460.09 238.495C459.87 238.755 459.61 238.945 459.3 239.075C458.99 239.205 458.62 239.275 458.19 239.275C457.75 239.275 457.38 239.205 457.07 239.085C456.75 238.955 456.49 238.775 456.27 238.515C455.83 238.005 455.6 237.315 455.59 236.405C455.59 235.525 455.82 234.835 456.27 234.295C456.49 234.025 456.75 233.835 457.07 233.695C457.38 233.565 457.75 233.495 458.18 233.495C458.61 233.495 458.98 233.565 459.29 233.695C459.6 233.825 459.86 234.025 460.08 234.295C460.53 234.845 460.76 235.525 460.76 236.405C460.76 237.285 460.53 237.965 460.08 238.495H460.09ZM444.49 236.265C444.49 236.675 444.43 237.015 444.33 237.295C444.22 237.575 444.07 237.805 443.86 237.985C443.42 238.365 442.91 238.555 442.26 238.555C441.88 238.555 441.55 238.505 441.28 238.415C441.01 238.325 440.78 238.195 440.6 238.025C440.42 237.855 440.28 237.645 440.19 237.385C440.1 237.125 440.05 236.815 440.05 236.445C440.05 235.625 440.26 235.035 440.65 234.605C440.84 234.395 441.08 234.235 441.36 234.125C441.65 234.015 441.99 233.955 442.39 233.955H444.5V236.245L444.49 236.265Z" fill="#EFE8E8"/>
<path d="M490.03 225.835H489.73H485.88V229.215H490.03V225.835Z" fill="#EFE8E8"/>
<path d="M496.44 240.415C496.35 239.875 496.21 238.775 496.02 237.145C495.91 236.135 495.66 235.215 495.27 234.395C494.88 233.565 494.36 232.835 493.7 232.215C493.04 231.585 492.21 231.095 491.24 230.755C490.26 230.415 489.17 230.245 487.96 230.245C486.69 230.245 485.48 230.485 484.35 230.975C483.22 231.465 482.28 232.155 481.56 233.045C480.83 233.945 480.42 234.955 480.35 236.045L480.33 236.365H484.1L484.14 236.115C484.19 235.795 484.32 235.495 484.53 235.195C484.74 234.895 485.04 234.605 485.43 234.325C486.2 233.765 487.03 233.495 487.96 233.495C489 233.495 489.85 233.805 490.56 234.435C491.27 235.065 491.7 235.905 491.87 236.995C491.97 237.655 492.1 238.365 492.27 239.125H478.71C477.88 239.125 477.29 238.975 476.93 238.725C476.75 238.595 476.62 238.445 476.53 238.265C476.44 238.085 476.38 237.865 476.37 237.595V237.125C476.37 236.255 476.25 235.455 476.01 234.725C475.77 234.005 475.43 233.395 475 232.885C474.57 232.385 474.06 231.965 473.47 231.625C472.88 231.285 472.24 231.045 471.56 230.885C470.88 230.725 470.16 230.645 469.4 230.635H466.53V233.895H469.4C469.83 233.895 470.2 233.975 470.53 234.135C470.86 234.295 471.16 234.535 471.42 234.865C471.94 235.525 472.21 236.395 472.21 237.515V239.125H465.43V242.545H475.61L475.7 242.425C475.87 242.185 476.02 241.915 476.14 241.605C476.17 241.535 476.18 241.475 476.2 241.415C476.42 241.685 476.71 241.915 477.06 242.095C477.61 242.395 478.17 242.555 478.73 242.555H496.95L496.85 242.175C496.68 241.545 496.55 240.955 496.46 240.415H496.44Z" fill="#EFE8E8"/>
<path d="M520.67 246.695H520.97H524.11V243.375H520.67V246.695Z" fill="#EFE8E8"/>
<path d="M525.77 246.695H526.07H529.23V243.375H525.77V246.695Z" fill="#EFE8E8"/>
<path d="M536.01 246.765H536.31H540.16V243.375H536.01V246.765Z" fill="#EFE8E8"/>
<path d="M547.46 239.125H542.37C541.87 239.125 541.47 238.965 541.09 238.615C540.91 238.445 540.78 238.255 540.69 238.005C540.6 237.755 540.55 237.455 540.55 237.105V231.795H536.4V237.585C536.4 237.875 536.36 238.125 536.28 238.315C536.2 238.505 536.1 238.645 535.96 238.765C535.64 239.025 535.32 239.135 534.97 239.145H530.53C530.03 239.145 529.63 238.985 529.25 238.635C529.07 238.465 528.94 238.275 528.85 238.025C528.76 237.775 528.71 237.475 528.71 237.125V231.815H524.56V237.605C524.56 237.895 524.52 238.145 524.44 238.335C524.36 238.525 524.26 238.665 524.12 238.785C523.8 239.045 523.48 239.155 523.13 239.165H519.78L516.9 239.185C517.41 238.655 517.78 238.135 517.98 237.615C518.23 236.985 518.35 236.325 518.35 235.635C518.35 234.865 518.24 234.185 518 233.605C517.77 233.015 517.41 232.525 516.93 232.145C515.99 231.395 514.72 231.035 513.15 231.035H502.68V231.905L502.78 231.995C503.14 232.325 503.52 232.855 503.9 233.575C504.29 234.305 504.62 235.025 504.9 235.715C505.18 236.435 505.52 237.165 505.9 237.905C506.18 238.445 506.45 238.885 506.73 239.235C505.99 239.325 505.31 239.495 504.68 239.785C503.91 240.135 503.28 240.575 502.8 241.125C502.33 241.655 501.96 242.245 501.71 242.875C501.46 243.505 501.33 244.165 501.33 244.835C501.33 246.065 501.75 247.185 502.57 248.155L502.66 248.265H506.76L506.42 247.785C506.04 247.255 505.78 246.775 505.64 246.365C505.5 245.955 505.42 245.475 505.42 244.905C505.42 244.595 505.47 244.315 505.58 244.045C505.68 243.785 505.84 243.535 506.05 243.315C506.25 243.105 506.53 242.925 506.89 242.795C507.25 242.665 507.67 242.595 508.16 242.595H523.12C523.83 242.595 524.59 242.465 525.38 242.205C526.09 241.975 526.72 241.605 527.25 241.095C527.61 241.475 528.04 241.805 528.56 242.075C529.2 242.415 529.85 242.595 530.51 242.595H534.95C535.66 242.595 536.42 242.465 537.21 242.205C537.92 241.975 538.55 241.605 539.08 241.095C539.44 241.475 539.87 241.805 540.39 242.075C541.03 242.415 541.68 242.595 542.34 242.595H551.58V231.835H547.43V239.175L547.46 239.125ZM513.85 237.175C513.6 237.755 513.24 238.255 512.75 238.675C512.27 239.085 511.78 239.285 511.23 239.285C510.95 239.285 510.69 239.175 510.41 238.895C510.12 238.605 509.87 238.235 509.66 237.775C509.44 237.295 509.24 236.805 509.06 236.305C508.88 235.795 508.68 235.305 508.47 234.845C508.38 234.645 508.3 234.475 508.21 234.325H512.51C513.05 234.325 513.47 234.445 513.79 234.655C513.94 234.755 514.05 234.875 514.12 235.005C514.19 235.135 514.23 235.305 514.23 235.505C514.23 236.035 514.11 236.585 513.86 237.175H513.85Z" fill="#EFE8E8"/>
<path d="M547.46 230.555H547.77H551.61V227.155H547.46V230.555Z" fill="#EFE8E8"/>
<path d="M568.22 224.895V225.205V239.125H564.14V229.285H559.99V239.125H557.25V242.555H572.37V224.895H568.22Z" fill="#EFE8E8"/>
</svg>
